<svg width="18" height="29" viewBox="0 0 18 29" fill="none" xmlns="http://www.w3.org/2000/svg">
<path fill-rule="evenodd" clip-rule="evenodd" d="M12.75 8.5C11.6183 8.5 10.7783 8.95818 10.1833 9.59091C9.58833 10.2236 9.27333 10.5945 9.25 10.6818C9.22667 10.5945 8.92333 10.2236 8.31667 9.59091C7.71 8.95818 6.95167 8.5 5.75 8.5C3.846 8.59382 2.30367 9.95418 2.25 11.7727C2.25 12.34 2.355 13.4309 3.03167 14.6855C3.70833 15.94 5.76167 17.8927 9.25 20.5C12.7267 17.8927 14.815 15.9509 15.48 14.6855C16.145 13.42 16.25 12.3182 16.25 11.7727C16.1952 9.92909 14.6843 8.59491 12.75 8.5Z" fill="#9E9E9E"/>
</svg>
