<svg width="18" height="29" viewBox="0 0 18 29" fill="none" xmlns="http://www.w3.org/2000/svg">
<g clip-path="url(#clip0_108_3188)">
<path fill-rule="evenodd" clip-rule="evenodd" d="M9 6.25C4.0275 6.25 0 10.3794 0 15.4776C0 19.5609 2.57625 23.0097 6.15375 24.2324C6.60375 24.3131 6.7725 24.0363 6.7725 23.7941C6.7725 23.5749 6.76125 22.8482 6.76125 22.0754C4.5 22.5022 3.915 21.5102 3.735 20.9912C3.63375 20.7259 3.195 19.9069 2.8125 19.6878C2.4975 19.5147 2.0475 19.088 2.80125 19.0764C3.51 19.0649 4.01625 19.7454 4.185 20.0223C4.995 21.4179 6.28875 21.0258 6.80625 20.7835C6.885 20.1837 7.12125 19.78 7.38 19.5493C5.3775 19.3187 3.285 18.5228 3.285 14.9932C3.285 13.9897 3.63375 13.1592 4.2075 12.5133C4.1175 12.2826 3.8025 11.3367 4.2975 10.0679C4.2975 10.0679 5.05125 9.82571 6.7725 11.0138C7.4925 10.8061 8.2575 10.7023 9.0225 10.7023C9.7875 10.7023 10.5525 10.8061 11.2725 11.0138C12.9938 9.81418 13.7475 10.0679 13.7475 10.0679C14.2425 11.3367 13.9275 12.2826 13.8375 12.5133C14.4113 13.1592 14.76 13.9782 14.76 14.9932C14.76 18.5343 12.6562 19.3187 10.6538 19.5493C10.98 19.8377 11.2613 20.3914 11.2613 21.2565C11.2613 22.4907 11.25 23.4826 11.25 23.7941C11.25 24.0363 11.4187 24.3246 11.8688 24.2324C13.6554 23.614 15.2079 22.4366 16.3078 20.8662C17.4077 19.2957 17.9995 17.4111 18 15.4776C18 10.3794 13.9725 6.25 9 6.25Z" fill="#9E9E9E"/>
</g>
<defs>
<clipPath id="clip0_108_3188">
<rect width="18" height="18" fill="white" transform="translate(0 6.25)"/>
</clipPath>
</defs>
</svg>
