<svg width="1440" height="345" viewBox="0 0 1440 345" fill="none" xmlns="http://www.w3.org/2000/svg">
<path d="M631.592 9.32071C629.862 23.734 624.768 41.3184 622.27 41.3184C621.597 41.3184 616.984 39.3967 612.083 37.0905C604.203 33.439 592.19 29.7877 587.769 29.7877C586.616 29.7877 587.193 31.5173 589.98 37.1866C594.208 45.7386 598.052 59.0949 597.572 63.7072L597.283 66.782L588.634 67.4548C563.456 69.3765 551.635 70.5296 551.635 71.01C551.635 71.3944 555.864 75.9106 561.053 81.1955C570.76 90.9966 577.871 101.47 577.39 105.122C577.198 106.467 572.297 110.502 562.207 117.517C554.038 123.187 547.215 128.279 547.023 128.76C546.83 129.24 547.887 129.913 549.425 130.297C559.708 132.508 564.129 133.948 567.78 136.063C572.778 139.041 577.967 143.462 580.562 147.113L582.484 149.803L571.72 160.469C562.687 169.501 561.149 171.328 562.303 172.384C563.071 173.057 568.837 175.267 575.18 177.189C581.523 179.111 587.097 181.129 587.577 181.609C588.058 182.089 587.289 186.99 585.463 193.716C583.829 199.962 582.772 205.439 583.06 205.919C583.541 206.784 599.398 206.015 601.992 205.055C604.395 204.19 605.356 206.496 606.029 214.087C606.413 218.507 606.99 222.255 607.374 222.446C608.143 222.928 618.906 218.315 618.906 217.546C618.906 217.258 617.657 215.24 616.119 213.03C611.699 206.592 608.719 199.962 605.932 190.737C604.587 185.933 602.569 179.495 601.608 176.324C600.551 173.153 599.494 168.829 599.302 166.715C597.956 156.53 597.764 152.782 598.725 152.782C599.205 152.782 599.686 154.416 599.686 156.337C599.782 160.662 601.896 172.192 603.338 176.324C603.914 177.861 605.74 183.531 607.374 188.815C611.314 201.211 616.984 212.358 621.885 217.258C624.192 219.564 629.189 222.831 633.994 225.041L642.066 228.789L641.779 232.344L641.49 235.9L620.059 243.01L598.629 250.216L595.842 259.345C594.304 264.438 589.98 279.524 586.136 292.977C582.292 306.333 578.64 317.863 578.063 318.44C577.487 319.016 575.757 324.205 574.315 330.066C572.874 335.832 571.528 341.405 571.24 342.271C570.76 343.904 574.604 344 642.835 344C711.163 344 715.008 343.904 715.008 342.271C715.008 341.405 710.491 336.409 704.917 331.22C699.343 326.031 694.826 321.227 694.826 320.458C694.826 319.785 698.286 316.23 702.418 312.579C712.989 303.547 713.086 302.97 708.761 291.919C701.457 273.375 685.793 244.739 680.026 239.359C678.2 237.629 677.527 235.995 677.527 233.401C677.527 229.461 678.393 228.501 683.294 226.867C688.291 225.234 693.192 221.486 696.556 216.778C699.247 213.03 700.4 212.358 707.799 210.052C712.317 208.61 715.968 207.072 715.968 206.688C715.968 206.208 714.239 203.71 712.124 201.211C707.992 196.214 707.223 192.659 710.01 191.794C710.875 191.506 714.239 191.025 717.41 190.641C720.581 190.353 723.464 189.872 723.848 189.584C724.714 189.199 719.813 175.556 718.66 175.074C718.275 174.883 717.89 174.018 717.89 173.057C717.89 171.904 719.236 171.039 722.695 170.174C728.653 168.637 742.876 161.814 742.876 160.565C742.876 159.989 741.051 158.643 738.841 157.49C726.54 151.244 716.545 144.038 718.563 142.885C718.947 142.693 722.503 141.54 726.347 140.387C730.191 139.234 736.438 136.832 740.281 135.101C746.913 132.123 760.56 124.051 759.982 123.475C759.598 123.187 733.554 112.04 731.056 111.175C729.903 110.695 729.615 110.118 730.095 109.253C730.479 108.485 736.822 102.335 744.126 95.6093C751.334 88.7866 757.292 82.9251 757.292 82.5407C757.292 81.772 751.333 80.715 733.747 78.2168C727.404 77.2558 721.83 76.2949 721.446 75.9106C720.966 75.5262 725.387 67.0704 731.248 57.1732C740.763 40.9341 742.589 37.4748 741.627 37.4748C741.435 37.4748 733.554 40.2615 724.137 43.7206C710.394 48.7173 706.646 49.6782 705.686 48.7173C703.571 46.6034 701.553 30.7486 701.553 16.5273V2.78659L693.769 6.91843C684.639 11.819 672.435 21.3318 666.765 27.962C664.65 30.5564 662.44 32.6704 662.056 32.6704C661.575 32.6704 657.923 28.2503 653.791 22.7732C646.68 13.3564 634.667 0 633.321 0C632.937 0 632.168 4.22793 631.592 9.32071ZM634.282 250.12C630.727 252.907 612.564 300.856 614.005 303.354C614.485 304.218 618.618 308.158 623.231 312.195C627.94 316.23 631.88 319.978 632.072 320.554C632.264 321.131 631.111 323.245 629.477 325.262C627.94 327.28 626.594 328.337 626.594 327.664C626.594 327.088 627.459 325.358 628.612 324.013L630.631 321.419L621.405 312.771C614.966 306.717 612.179 303.45 612.179 301.912C612.179 298.838 623.135 269.434 629.862 254.349C631.495 250.697 632.841 248.871 633.994 248.871C635.532 248.967 635.532 249.063 634.282 250.12Z" fill="#F5F5F5"/>
<path d="M794.974 135.302C768.011 140.219 753.138 150.92 733.852 179.555C729.63 185.726 729.341 186.497 729.341 192.475C729.341 197.102 728.382 201.634 725.888 209.443C721.666 222.652 721.857 225.737 727.902 236.053C730.301 240.103 732.22 243.96 732.22 244.441C732.22 245.02 730.972 246.852 729.341 248.587C724.256 254.082 724.352 262.566 729.63 268.255C732.7 271.437 739.897 274.425 741.816 273.172C742.295 272.883 741.624 270.665 740.376 268.158C739.033 265.748 737.977 263.049 738.073 262.181C738.073 261.217 738.553 261.506 739.129 263.049C740.76 266.616 748.34 278.379 752.082 283.006C759.471 292.262 775.399 301.614 790.272 305.567C794.782 306.724 802.746 307.784 809.463 308.074C815.795 308.363 820.113 308.941 819.058 309.327C813.301 311.351 786.817 307.591 774.631 302.964L768.299 300.554L766.667 302.771C760.622 310.773 753.713 328.996 751.986 341.336L751.507 345H810.998C867.227 345 870.489 344.903 870.009 343.265C869.722 342.397 868.186 336.612 866.652 330.441C863.293 317.137 860.606 310.484 856.288 304.796C854.561 302.482 853.122 300.072 853.122 299.397C853.217 298.818 855.616 296.504 858.591 294.383C863.964 290.526 871.353 282.717 875.383 276.547C876.726 274.522 878.837 272.883 880.757 272.305C882.388 271.822 885.458 269.798 887.569 267.87C894.19 261.506 894.862 252.829 889.008 247.719C886.993 245.984 886.705 245.116 887.281 242.031C887.665 240.103 888.24 238.271 888.625 237.981C889.008 237.693 889.872 234.896 890.544 231.714C891.503 227.087 891.503 223.52 890.544 213.589C889.872 206.84 888.912 201.345 888.432 201.345C887.953 201.345 887.665 198.645 887.761 195.27C887.953 189.968 887.473 188.329 884.018 181.58C879.413 172.42 872.6 162.394 865.691 154.874C861.47 150.245 858.687 148.414 847.844 143.015C840.168 139.255 832.299 136.073 828.462 135.302C820.498 133.566 804.185 133.566 794.974 135.302Z" fill="#F5F5F5"/>
<path d="M682 240.556C682 240.845 683.841 243.542 686.165 246.529C688.49 249.517 691.687 254.238 693.431 256.839C697.984 264.065 708.544 286.611 711.644 295.572C715.034 305.11 714.744 305.785 704.571 314.36C700.696 317.636 697.5 321.105 697.5 321.875C697.5 322.743 701.858 327.367 707.187 332.378C713 337.677 716.874 342.013 716.874 343.169C716.874 344.904 717.65 345 730.437 345C740.609 345 744 344.711 744 343.747C744 339.7 720.265 254.816 718.037 250.769C717.65 249.998 711.45 247.975 704.281 246.144C697.112 244.41 689.653 242.29 687.618 241.423C683.647 239.881 682 239.593 682 240.556Z" fill="#F5F5F5"/>
</svg>
