<svg width="18" height="29" viewBox="0 0 18 29" fill="none" xmlns="http://www.w3.org/2000/svg">
<path d="M16.1498 11.6786C16.1612 11.8427 16.1612 12.0068 16.1612 12.1708C16.1612 17.1747 12.4493 22.9404 5.66499 22.9404C3.57488 22.9404 1.63326 22.3192 0 21.2412C0.296966 21.2763 0.582471 21.288 0.890863 21.288C2.61546 21.288 4.20305 20.6904 5.47083 19.6709C3.84899 19.6357 2.48985 18.5458 2.02156 17.0458C2.25001 17.081 2.47842 17.1044 2.71829 17.1044C3.0495 17.1044 3.38074 17.0575 3.6891 16.9755C1.99875 16.6239 0.730936 15.1005 0.730936 13.2607V13.2138C1.22204 13.4951 1.79315 13.6708 2.39844 13.6943C1.40478 13.0146 0.753788 11.8544 0.753788 10.5419C0.753788 9.83879 0.936496 9.19426 1.25631 8.63176C3.07232 10.9286 5.80203 12.4286 8.86293 12.5927C8.80583 12.3114 8.77155 12.0185 8.77155 11.7255C8.77155 9.63957 10.4162 7.94037 12.4607 7.94037C13.5228 7.94037 14.4822 8.3974 15.1561 9.13568C15.9898 8.97163 16.7893 8.6552 17.4975 8.22162C17.2233 9.10055 16.6409 9.83883 15.8756 10.3075C16.618 10.2256 17.3376 10.0146 18 9.72163C17.4975 10.4716 16.8693 11.1395 16.1498 11.6786Z" fill="#9E9E9E"/>
</svg>
